<?xml version="1.0" encoding="utf-8"?>
<!-- Generator: Adobe Illustrator 22.1.0, SVG Export Plug-In . SVG Version: 6.00 Build 0)  -->
<svg version="1.1" id="layer_1" xmlns="http://www.w3.org/2000/svg" xmlns:xlink="http://www.w3.org/1999/xlink" x="0px" y="0px"
	 viewBox="0 0 1400 1400" style="enable-background:new 0 0 1400 1400;" xml:space="preserve">
<style type="text/css">
	.st0{fill:#1C1712;}
	.st1{fill:#039AE3;}
	.st2{fill:#FFFFFF;}
	.st3{fill:#EC7A00;}
	.st4{fill:#7B1B05;}
	.st5{fill:#E67606;}
	.st6{fill:#FF2A30;stroke:#FFFFFF;stroke-miterlimit:10;}
</style>
<g>
	<rect x="0" class="st0" width="1400" height="1400"/>
	<polygon class="st1" points="785.7,0 785.7,948.8 0,1107.4 0,0 	"/>
	<g>
		<g>
			<path class="st2" d="M37.2,126.7c-13.1,0-25.6,1.1-37.2,3.2v102.7c11.6,2.1,24.1,3.2,37.2,3.2c61,0,110.5-24.4,110.5-54.5
				C147.7,151.1,98.2,126.7,37.2,126.7z"/>
			<path class="st3" d="M137,157.8c1.2,3.2,1.8,6.5,1.8,9.9c0,30.1-49.5,54.5-110.5,54.5c-9.8,0-19.3-0.6-28.3-1.8v12.1
				c11.6,2.1,24.1,3.2,37.2,3.2c61,0,110.5-24.4,110.5-54.5C147.7,172.8,143.8,164.9,137,157.8z"/>
		</g>
		<g>
			<ellipse class="st2" cx="346.5" cy="181.2" rx="110.5" ry="54.5"/>
			<path class="st3" d="M446.3,157.8c1.2,3.2,1.8,6.5,1.8,9.9c0,30.1-49.5,54.5-110.5,54.5c-44,0-82-12.7-99.8-31.1
				c9.5,25.4,54.5,44.6,108.6,44.6c61,0,110.5-24.4,110.5-54.5C457,172.8,453.2,164.9,446.3,157.8z"/>
		</g>
		<g>
			<ellipse class="st2" cx="174.1" cy="235.7" rx="136" ry="67.1"/>
			<path class="st3" d="M296.9,206.9c1.5,4,2.3,8.1,2.3,12.2c0,37.1-60.9,67.1-136,67.1c-54.2,0-101-15.6-122.8-38.3
				c11.7,31.2,67.1,54.9,133.7,54.9c75.1,0,136-30,136-67.1C310.1,225.4,305.3,215.6,296.9,206.9z"/>
		</g>
		<g>
			<ellipse class="st2" cx="138.7" cy="155" rx="136" ry="67.1"/>
		</g>
	</g>
	<polygon class="st2" points="785.7,948.8 693.9,930.7 0,1070.7 0,1107.4 785.7,948.9 	"/>
	<polygon class="st2" points="785.7,0 693.9,0 693.9,930.7 785.7,948.8 	"/>
	<polygon class="st3" points="739.8,309.8 785.7,358.9 785.7,463.6 739.8,421 	"/>
	<polygon class="st3" points="739.8,613 785.7,653 785.7,948.8 0,1107.4 0,1083.5 739.8,936.8 	"/>
	<g>
		<path class="st2" d="M669.3,0v293.2L126.1,400.9V0H76.3v410.8L0,425.9v49.8l76.3-15.1v543.2L0,1018.9v49.8l719.1-142.6V0H669.3z
			 M669.3,886.2L126.1,993.9V450.7L669.3,343V886.2z"/>
		<path class="st4" d="M690,0v303.9L146.8,411.6V0H97v421.5L0,440.7v49.8l97-19.2v543.2l-97,19.2v49.8l739.8-146.7V0H690z
			 M690,896.8l-543.2,107.7V461.4L690,353.7V896.8z"/>
		<polygon class="st0" points="690,543 739.8,596 739.8,936.8 0,1083.5 0,1033.7 97,1014.4 97,628.1 146.8,679.1 146.8,1004.6 
			690,896.8 		"/>
	</g>
	<g>
		<path class="st2" d="M1245.2,896.5l-39.3-293c-72-7.4-84.3-6.5-90.8-22.9c-6.5-16.4-33.4-147.3-33.4-147.3l-76.3,102.3
			c9.8,30.3,15.5,69.6,9.8,78.6c-3.5,5.4-29.5,19.2-49.6,29.2c-14.6,7.3-25.7,20.1-31,35.5c-27.5,79.6-78.9,100.5-87.1,161.9
			c-4.9,42.6,27,82.7,27,82.7c-10.6,89.2,0,292.1,0,292.1l311.8,27.8C1163.3,1102.8,1163.3,1020.9,1245.2,896.5z"/>
		<g>
			<path class="st2" d="M858.5,869.3c0,0-18.8,82.7-24.1,95.3c-38.5,16.8-63.4,53.6-93.7,61c0,0-27.4-7-34-4.9
				c-6.5,2-13.1,11-13.1,11l-24.7-5.5l7.5,40.2l4.9,5.7c0,0,20.5-20,25.8-20.9s40.5,13.9,44.2,20.9c-18,11.5-16,25-14.3,29.1
				c17.2-4.9,36-5.3,36-5.3s26.6-6.1,30.3-27c28.8-14.7,63.8-14,82.9-40.4c19-26.5,33.8-117.3,33.8-117.3L858.5,869.3z"/>
			<path class="st5" d="M870.4,904.3l-19.6,63.8c0,0,20.9,11,23.3,22.1c2.5,11-79.7,55.9-79.7,55.9c2.5,16.9,3.8,29.2-8.7,44.8
				c7.4-4.1,15.7-11,17.6-21.9c28.8-14.7,63.8-14,82.9-40.4c14.4-20,26.3-76.6,31.2-103.2L870.4,904.3z"/>
		</g>
		<path class="st5" d="M1005.4,535.7c2.3,7.1,4.4,14.7,6.1,22.3l0,0l70.1,3.9c0,0,3.9,49.9,21.9,51.6c18,1.6,63.8,5.7,63.8,5.7
			l17.2-17.7c-53.4-5.3-63.8-6.2-69.6-20.8c-5.7-14.2-26.6-114.3-32.1-140.8l-4.3-2.5L1005.4,535.7z"/>
		<path class="st0" d="M1236.4,912.6c-7.9-25.2-31.4-90.2-31.6-90.9l-0.1-0.3l-0.2-0.2c-39.6-51.4-36.9-146.4,5.7-195.4l0.6-0.7
			l-3.1-23.4l-1.6-0.2c-8.2-0.8-15.7-1.6-22.4-2.2l-6.1-0.6l-0.2,0c-5,0.7-16.3,12.4-39.4,36.5c-42,43.9-105.6,110.3-147.1,114.9
			c-2.4,0.3-4.7,0.4-6.8,0.4c0,0,0,0,0,0c-13.5,0-22.9-5-28-14.9c-11.8-22.8,1.8-68.2,21.7-96.4l-2.5-2.9c-3.3,1.7-6.8,3.5-10.5,5.3
			c-15.1,7.5-26.5,20.6-32,36.7c-13.1,38-31.9,62.7-48.5,84.6c-18.5,24.3-34.4,45.3-38.7,77.8c-4.7,40.4,22.6,77.9,26.9,83.5
			c-10.4,88.8,0,289.6,0.1,291.7l0.1,1.7l316.1,28.2l-0.4-2.5c-22.8-140.1-21.2-216.8,48-328.9l0.3-0.5v-0.9L1236.4,912.6z"/>
		<g>
			<path class="st0" d="M1095.2,1186.3c-70.2-45.7-277.3-78.9-522-78.9s-451.8,33.2-522,78.9H25.7v34.2
				c0,62.5,245.1,113.1,547.5,113.1s547.5-50.6,547.5-113.1v-34.2H1095.2z"/>
			<path class="st5" d="M337.7,1118.4c-135.7,13.4-240.5,37.9-286.5,67.9H25.7v34.2c0,45.1,127.5,84,312,102.1V1118.4z"/>
			<ellipse class="st2" cx="573.2" cy="1186.3" rx="547.5" ry="113.1"/>
		</g>
		<path class="st0" d="M860.5,354.2c-12.4,114.3-32.1,187.3,37.3,215.6c-26.4-29.5-26.4-74.9-19.6-103.7
			c1.2,54.6,12.4,101.9,51,113.5c-16-31.9-14.8-92.3-14.8-92.3l-9.2-117l-16.5-30.7L860.5,354.2z"/>
		<path class="st5" d="M870.8,367.1l-10.8-8c-12.4,111.6-30.6,182.9,37.8,210.8C843.8,541.4,856.9,476.3,870.8,367.1z"/>
		<g>
			<path class="st5" d="M886.7,437.3l-8.5,28.8c1.2,54.6,12.4,101.9,51,113.5C878.7,558.5,886.7,437.3,886.7,437.3z"/>
		</g>
		<path class="st0" d="M1131.3,396.7c0,0-44.9,60.4-38.3,90.7l-43.6-28.6l-9.8-71.3l55.9-17.1L1131.3,396.7z"/>
		<path class="st0" d="M911.3,309c-35,42.3-132.6,190.9-50.9,256.3c-119.7-66,34.6-262.4,34.6-262.4L911.3,309z"/>
		<path class="st2" d="M881.4,348.7c1.6,47.5,3.3,60.1,3.3,60.1s14.3,19.2,13.9,34.8c-0.4,15.5-2.9,25.8,5.7,41.7
			s44.2,56.5,47.9,79.8c47.1,2.9,96.2-48.7,106.8-65.5c10.6-16.8,11.9-49.1,11.9-49.1l-8.6-110.9l-110.1-46.2l-57.3,9.4L881.4,348.7
			z"/>
		<path class="st6" d="M924,507.5c0,0,6.9,1.8,10.3,1.5s7.8-5.1,7.8-5.1s29.2,4,37.1-0.9c-17.2,17.6-32.1,31.8-44.1,25
			c-7.7-4.3-4.3-12.8-4.3-12.8L924,507.5z"/>
		<path class="st0" d="M997.8,217.5c-25.8-0.6-130.4,46.3-137.3,136.7l13.9-4.8L997.8,217.5z"/>
		<path class="st5" d="M1063.1,349.7l-38.4,17.4c8.6,119.5-2.9,166.9-72.4,198c47.1,2.9,97-47.9,107.7-64.6
			c10.6-16.8,11-49.9,11-49.9L1063.1,349.7z"/>
		<path class="st0" d="M911.3,309c52,64.6,114,96.9,156.1,97c42.1,0,63.9-9.3,63.9-9.3s24.3-103.2-19.9-153.3
			c-31.6-35.9-77.9-41.1-113.5-25.8L911.3,309z"/>
		<path class="st5" d="M1065.3,409c6.1-11,23.9-35.3,31.9-11.4s-11,36.5-12.6,48.2c-1.5,11.7-12,10.4-17.5,5.2
			C1061.7,445.9,1065.3,409,1065.3,409z"/>
		<g>
			<polygon class="st5" points="1054.5,1175.4 641.2,1061.4 724.4,1175.4 			"/>
			
				<rect x="645.9" y="827.9" transform="matrix(0.9373 -0.3485 0.3485 0.9373 -310.5433 291.1121)" class="st0" width="16" height="361.7"/>
			<rect x="724.4" y="1175.4" class="st0" width="330.1" height="21.9"/>
			<polygon class="st2" points="709.4,1181 415.4,1088.4 286.5,761.9 583.4,842 			"/>
			<polygon class="st0" points="724.4,1197.3 421.9,1099.5 421.9,1090.5 709.4,1181 724.4,1175.4 			"/>
			<polygon class="st5" points="598.3,836.4 299.6,755.8 286.5,761.9 583.4,842 			"/>
		</g>
		<g>
			<path class="st1" d="M188.5,1014.8l10.1,137.1c0,5.4,17.9,9.9,40,9.9s40-4.4,40-9.9l10.1-137.1H188.5z"/>
			<path class="st2" d="M201.1,1014.8h-12.5l10.1,137.1c0,2.6,4.2,5,10.9,6.8L201.1,1014.8z"/>
			<path class="st0" d="M238.7,1161.7c22.1,0,40-4.4,40-9.9l10.1-137.1h-50.1V1161.7z"/>
			<ellipse class="st5" cx="238.7" cy="1014.8" rx="50.1" ry="12.4"/>
		</g>
		<path class="st1" d="M848.4,835c49.9,9.4,127.8,14.4,231.9-11.7c-59.5-7.4-183.5-48.5-169-95.4C885.8,769.2,856.4,792.3,848.4,835
			z"/>
		<path class="st5" d="M865.7,345.7c-35.5,57.7-83.2,159-19.8,209.9c-67.6-68.2,24.4-208.1,58.3-249.3
			C904.2,306.3,885.5,317.5,865.7,345.7z"/>
		<path class="st5" d="M860.5,354.2l10.2-3.5c3.6-5.8,6.2-12,7.5-18.5c8.7-45.3,81.8-99.8,119.7-114.8
			C972.1,216.9,867.4,263.9,860.5,354.2z"/>
		<g>
			<path class="st2" d="M1205.9,603.6c41.5,6.5,88.4,42.1,105.6,111.7c6.8,27.5,14.4,83.7,26.4,147.5
				c18.4,97.6,40.8,212.7,35.8,268.7c-118.7,60.6-265.1,5.7-392.8,30.3v-56.5c203.6-8.2,247.1-47.5,286.4-57.3
				c-6.5-78.6-72.8-248-72.8-248C1170.7,737.8,1135.5,605.2,1205.9,603.6z"/>
			<path class="st5" d="M1373.6,1131.4c5-55.9-17.4-171.1-35.8-268.7c-12-63.7-19.6-120-26.4-147.5c-17.2-69.6-64-105.2-105.6-111.7
				c-14.3,0.3-24.3,6.1-30.8,15.5c73,8.2,104.5,49.9,119.2,146.5c14.7,96.6,52.4,230,57.3,281.5c4.9,51.6,0,67.9,0,67.9
				c-112.9,60.3-304.4,11-370.7,46.6C1108.5,1137.1,1255,1192,1373.6,1131.4z"/>
			<path class="st2" d="M980.8,1105.2c-35.2-0.8-91-14.9-91-14.9s-24.5-13.2-28.5-14.4c-4-1.2-14.3,2.5-14.3,2.5s-17.3-9.8-26.2-8.9
				c-8.9,0.9-49.1,32.2-66.3,34.4c-0.6,11.4,11.7,9.5,18.7,6.8s34.4-17.2,38.1-16.6c0,0-14.4,21.5-20.6,25.8
				c4,4.3,10.4,5.5,15.7,2.5s21.8-19,26.7-20.6c4.9-1.5,12.3-0.6,12.3-0.6s-9.8,19.6-18.4,25.5c6.1,4,14.4,0.3,18.1-3.1s11-8,11-8
				l12.9,5.8c19,15,71.6,72.8,111.9,40.4V1105.2z"/>
		</g>
		<polygon class="st0" points="238.7,1161.7 616.8,1161.7 568.5,1143.9 255.5,1143.9 		"/>
		<polygon class="st1" points="583.4,842 415.4,1088.4 709.4,1181 		"/>
		<path class="st0" d="M622.8,1156l-21.9-77.5c0,0-30.3-16.8-77.4-12.2l37.2,76.6L622.8,1156z"/>
		<path class="st1" d="M1131.3,396.7c0,0,24.3-103.2-19.9-153.3c-14.8-16.7-32.7-26.8-51.3-31.2c65.4,23.9,77.2,105.4,59.6,188.2
			c0,0-39.1,58-26.7,87.1C1086.4,457,1131.3,396.7,1131.3,396.7z"/>
	</g>
	<g>
		<g>
			<ellipse class="st2" cx="491.5" cy="590.3" rx="110.5" ry="54.5"/>
			<path class="st3" d="M591.3,566.9c1.2,3.2,1.8,6.5,1.8,9.9c0,30.1-49.5,54.5-110.5,54.5c-44,0-82-12.7-99.8-31.1
				c9.5,25.4,54.5,44.6,108.6,44.6c61,0,110.5-24.4,110.5-54.5C602,581.9,598.1,574,591.3,566.9z"/>
		</g>
		<g>
			<ellipse class="st2" cx="354" cy="622.8" rx="85.4" ry="42.1"/>
			<path class="st3" d="M431.1,604.7c0.9,2.5,1.4,5.1,1.4,7.7c0,23.3-38.2,42.1-85.4,42.1c-34,0-63.4-9.8-77.1-24
				c7.3,19.6,42.1,34.4,83.9,34.4c47.1,0,85.4-18.9,85.4-42.1C439.3,616.3,436.4,610.1,431.1,604.7z"/>
		</g>
		<g>
			<ellipse class="st2" cx="255.3" cy="590.3" rx="53.2" ry="26.2"/>
			<path class="st3" d="M303.4,579c0.6,1.6,0.9,3.2,0.9,4.8c0,14.5-23.8,26.2-53.2,26.2c-21.2,0-39.5-6.1-48-15
				c4.6,12.2,26.2,21.5,52.3,21.5c29.4,0,53.2-11.7,53.2-26.2C308.5,586.3,306.7,582.4,303.4,579z"/>
		</g>
		<g>
			<path class="st2" d="M668.9,580.8c-12.8-2-26.4-3-40.5-3c-75.1,0-136,30-136,67.1s60.9,67.1,136,67.1c14.1,0,27.7-1.1,40.5-3
				V580.8z"/>
			<path class="st3" d="M668.9,690.4c-15.9,3.2-33.2,5-51.4,5c-54.2,0-101-15.6-122.8-38.3c11.7,31.2,67.1,54.9,133.7,54.9
				c14.1,0,27.7-1.1,40.5-3V690.4z"/>
		</g>
		<path class="st2" d="M668.9,508.4c-21.7-7.2-47.8-11.4-76-11.4c-75.1,0-136,30-136,67.1s60.9,67.1,136,67.1
			c28.1,0,54.3-4.2,76-11.4V508.4z"/>
	</g>
</g>
</svg>
